<?xml version="1.0" encoding="UTF-8" standalone="no"?>
<!-- Created with Inkscape (http://www.inkscape.org/) -->

<svg
   xmlns:dc="http://purl.org/dc/elements/1.1/"
   xmlns:cc="http://creativecommons.org/ns#"
   xmlns:rdf="http://www.w3.org/1999/02/22-rdf-syntax-ns#"
   xmlns:svg="http://www.w3.org/2000/svg"
   xmlns="http://www.w3.org/2000/svg"
   xmlns:sodipodi="http://sodipodi.sourceforge.net/DTD/sodipodi-0.dtd"
   xmlns:inkscape="http://www.inkscape.org/namespaces/inkscape"
   width="100"
   height="100"
   viewBox="0 0 26.458333 26.458334"
   version="1.1"
   id="svg1328"
   inkscape:version="0.92.2 5c3e80d, 2017-08-06"
   sodipodi:docname="0.svg">
  <defs
     id="defs1322" />
  <sodipodi:namedview
     id="base"
     pagecolor="#ffffff"
     bordercolor="#666666"
     borderopacity="1.0"
     inkscape:pageopacity="0.0"
     inkscape:pageshadow="2"
     inkscape:zoom="5.43"
     inkscape:cx="36.924494"
     inkscape:cy="50"
     inkscape:document-units="mm"
     inkscape:current-layer="svg1328"
     showgrid="true"
     units="px"
     inkscape:window-width="1366"
     inkscape:window-height="720"
     inkscape:window-x="174"
     inkscape:window-y="7"
     inkscape:window-maximized="0">
    <inkscape:grid
       type="xygrid"
       id="grid1873" />
    <inkscape:grid
       type="xygrid"
       id="grid1875" />
  </sodipodi:namedview>
  <metadata
     id="metadata1325">
    <rdf:RDF>
      <cc:Work
         rdf:about="">
        <dc:format>image/svg+xml</dc:format>
        <dc:type
           rdf:resource="http://purl.org/dc/dcmitype/StillImage" />
        <dc:title></dc:title>
      </cc:Work>
    </rdf:RDF>
  </metadata>
  <ellipse
     style="opacity:1;fill:#008000;fill-opacity:1;stroke:#000000;stroke-width:0.26458332;stroke-opacity:0"
     id="path1879"
     cx="13.229166"
     cy="13.229166"
     rx="9.260416"
     ry="11.90625" />
  <ellipse
     ry="9.260417"
     rx="6.6145835"
     cy="13.229166"
     cx="13.229167"
     id="ellipse1881"
     style="opacity:1;fill:#ffffff;fill-opacity:1;stroke:#000000;stroke-width:0.26458332;stroke-opacity:0" />
  <g
     id="g1929"
     transform="translate(6.6145833,-0.87312513)">
    <path
       inkscape:connector-curvature="0"
       id="path1911"
       d="M 3.96875,1.8520833 A 1.3229166,1.7197913 0 0 0 2.6458333,3.5718756 1.3229166,1.7197913 0 0 0 3.96875,5.2916666 1.3229166,1.7197913 0 0 0 5.2916666,3.5718756 1.3229166,1.7197913 0 0 0 3.96875,1.8520833 Z m 0,0.3439585 A 1.0583334,1.3758333 0 0 1 5.0270833,3.5718756 1.0583334,1.3758333 0 0 1 3.96875,4.947708 1.0583334,1.3758333 0 0 1 2.9104166,3.5718756 1.0583334,1.3758333 0 0 1 3.96875,2.1960418 Z"
       style="opacity:1;fill:#000000;fill-opacity:1;stroke:#000000;stroke-width:0.26458332;stroke-opacity:0" />
    <circle
       r="0.66145831"
       cy="3.9699678"
       cx="4.1770544"
       id="path1919"
       style="opacity:1;fill:#000000;fill-opacity:1;stroke:#000000;stroke-width:0.26458332;stroke-opacity:0" />
    <circle
       r="0.26458332"
       cy="3.7894373"
       cx="4.3020372"
       id="path1921"
       style="opacity:1;fill:#ffffff;fill-opacity:1;stroke:#000000;stroke-width:0.26458332;stroke-opacity:0" />
  </g>
  <g
     id="g1937"
     transform="translate(11.90625,-0.87312513)">
    <path
       style="opacity:1;fill:#000000;fill-opacity:1;stroke:#000000;stroke-width:0.26458332;stroke-opacity:0"
       d="M 3.96875,1.8520833 A 1.3229166,1.7197913 0 0 0 2.6458333,3.5718756 1.3229166,1.7197913 0 0 0 3.96875,5.2916666 1.3229166,1.7197913 0 0 0 5.2916666,3.5718756 1.3229166,1.7197913 0 0 0 3.96875,1.8520833 Z m 0,0.3439585 A 1.0583334,1.3758333 0 0 1 5.0270833,3.5718756 1.0583334,1.3758333 0 0 1 3.96875,4.947708 1.0583334,1.3758333 0 0 1 2.9104166,3.5718756 1.0583334,1.3758333 0 0 1 3.96875,2.1960418 Z"
       id="path1931"
       inkscape:connector-curvature="0" />
    <circle
       style="opacity:1;fill:#000000;fill-opacity:1;stroke:#000000;stroke-width:0.26458332;stroke-opacity:0"
       id="circle1933"
       cx="4.1770544"
       cy="3.9699678"
       r="0.66145831" />
    <circle
       style="opacity:1;fill:#ffffff;fill-opacity:1;stroke:#000000;stroke-width:0.26458332;stroke-opacity:0"
       id="circle1935"
       cx="4.3020372"
       cy="3.7894373"
       r="0.26458332" />
  </g>
  <path
     style="fill:none;stroke:#000000;stroke-width:0.26458332px;stroke-linecap:butt;stroke-linejoin:miter;stroke-opacity:1"
     d="m 9.2604166,7.9374999 c 2.6458334,5.2916671 7.9374994,0 7.9374994,0 v 0 0"
     id="path1941"
     inkscape:connector-curvature="0"
     sodipodi:nodetypes="cccc" />
  <path
     sodipodi:nodetypes="cccc"
     inkscape:connector-curvature="0"
     id="path1943"
     d="m 10.953671,9.9219589 c 1.111807,2.3146731 3.335424,0 3.335424,0 v 0 0"
     style="fill:none;stroke:#000000;stroke-width:0.2645832px;stroke-linecap:butt;stroke-linejoin:miter;stroke-opacity:1" />
</svg>
